# xmcd
#
# Track frame offsets:
#	150
#	33051
#	46521
#	65018
#	87913
#	106230
#	123659
#	143729
#	165383
#	186212
#	208797
#	229693
#	253649
#	288406
#	317761
#
# Disc length: 4581 seconds
#
# Revision: 1
# Processed by: cddbd v1.5.1PL0 Copyright (c) Steve Scherf et al.
# Submitted via: audiograbber 1.83.01
#
DISCID=cb11e30f
DTITLE=Various Artist - Boss-A-Troniq 3
DYEAR=1900
DGENRE=
TTITLE0=Rockers Ho - Fi Meet Ella Fitzgerald: Sunshine Of Your Love (Bigg's But
TTITLE0=acada Mix)
TTITLE1=Praful - 196 Dawn
TTITLE2=Orfeo - Theme From Dolce Far Niente
TTITLE3=Victor Davies - Sound Of The Samba
TTITLE4=Marcos Valle - On Line
TTITLE5=Enrico Riva - Casa Manana
TTITLE6=Bahia Patrol Featuring Ana Beck - Ana's Blues
TTITLE7=Pekka Streng - Puutarhassa
TTITLE8=Freedom Sattelite - Soul Samba
TTITLE9=Modaji - The Latin Protocol
TTITLE10=EDC Featuring Lily Alcalay - Virgem Da Lua
TTITLE11=S - Tone Inc: Arejar (Soulstance Remix)
TTITLE12=W&P - In The Memory Of...
TTITLE13=Yukihiro Fukutomi Featuring Liane Carrol - Play Back
TTITLE14=Fragment Orchestra - Carioca
EXTD=
EXTT0=
EXTT1=
EXTT2=
EXTT3=
EXTT4=
EXTT5=
EXTT6=
EXTT7=
EXTT8=
EXTT9=
EXTT10=
EXTT11=
EXTT12=
EXTT13=
EXTT14=
PLAYORDER=
